<mxfile host="app.diagrams.net" modified="2022-09-28T01:48:32.925Z" agent="5.0 (Windows NT 10.0; WOW64) AppleWebKit/537.36 (KHTML, like Gecko) Chrome/86.0.4240.198 Safari/537.36" etag="2478BlqtN2l2jbBe1k7V" version="20.2.3" type="github">
  <diagram id="prtHgNgQTEPvFCAcTncT" name="Page-1">
    <mxGraphModel dx="1038" dy="540" grid="1" gridSize="10" guides="1" tooltips="1" connect="1" arrows="1" fold="1" page="1" pageScale="1" pageWidth="827" pageHeight="1169" math="0" shadow="0">
      <root>
        <mxCell id="0" />
        <mxCell id="1" parent="0" />
        <mxCell id="RqhIoaq9FpMqD3qclTNa-16" value="" style="group" vertex="1" connectable="0" parent="1">
          <mxGeometry x="420" y="394.87" width="570" height="230" as="geometry" />
        </mxCell>
        <mxCell id="RqhIoaq9FpMqD3qclTNa-12" value="" style="rounded=0;whiteSpace=wrap;html=1;fillColor=#e1d5e7;strokeColor=#9673a6;" vertex="1" parent="RqhIoaq9FpMqD3qclTNa-16">
          <mxGeometry y="135.13" width="505.47169811320754" height="94.87" as="geometry" />
        </mxCell>
        <mxCell id="RqhIoaq9FpMqD3qclTNa-15" value="" style="rounded=0;whiteSpace=wrap;html=1;fillColor=#e1d5e7;strokeColor=#9673a6;" vertex="1" parent="RqhIoaq9FpMqD3qclTNa-16">
          <mxGeometry x="371.0377358490566" width="198.96226415094338" height="230" as="geometry" />
        </mxCell>
        <mxCell id="RqhIoaq9FpMqD3qclTNa-17" value="监控中心" style="shape=process;whiteSpace=wrap;html=1;backgroundOutline=1;" vertex="1" parent="RqhIoaq9FpMqD3qclTNa-16">
          <mxGeometry x="215.0943396226415" y="145.13" width="172.0754716981132" height="60" as="geometry" />
        </mxCell>
        <mxCell id="RqhIoaq9FpMqD3qclTNa-18" value="安装部署平台" style="shape=process;whiteSpace=wrap;html=1;backgroundOutline=1;" vertex="1" parent="RqhIoaq9FpMqD3qclTNa-16">
          <mxGeometry x="384.4811320754717" y="25.129999999999995" width="172.0754716981132" height="60" as="geometry" />
        </mxCell>
        <mxCell id="RqhIoaq9FpMqD3qclTNa-4" value="数据层" style="rounded=0;whiteSpace=wrap;html=1;fillColor=#dae8fc;strokeColor=#6c8ebf;" vertex="1" parent="1">
          <mxGeometry x="40" y="660" width="140" height="60" as="geometry" />
        </mxCell>
        <mxCell id="RqhIoaq9FpMqD3qclTNa-5" value="" style="rounded=0;whiteSpace=wrap;html=1;fillColor=#e1d5e7;strokeColor=#9673a6;" vertex="1" parent="1">
          <mxGeometry x="220" y="655" width="530" height="70" as="geometry" />
        </mxCell>
        <mxCell id="RqhIoaq9FpMqD3qclTNa-7" value="mysql" style="shape=cylinder3;whiteSpace=wrap;html=1;boundedLbl=1;backgroundOutline=1;size=15;" vertex="1" parent="1">
          <mxGeometry x="240" y="660" width="60" height="60" as="geometry" />
        </mxCell>
        <mxCell id="RqhIoaq9FpMqD3qclTNa-8" value="redis" style="shape=cylinder3;whiteSpace=wrap;html=1;boundedLbl=1;backgroundOutline=1;size=15;" vertex="1" parent="1">
          <mxGeometry x="430" y="665" width="60" height="59" as="geometry" />
        </mxCell>
        <mxCell id="RqhIoaq9FpMqD3qclTNa-10" value="FDS&lt;br&gt;文件集群" style="shape=cylinder3;whiteSpace=wrap;html=1;boundedLbl=1;backgroundOutline=1;size=15;" vertex="1" parent="1">
          <mxGeometry x="630" y="665" width="60" height="60" as="geometry" />
        </mxCell>
        <mxCell id="RqhIoaq9FpMqD3qclTNa-11" value="应用支持层" style="rounded=0;whiteSpace=wrap;html=1;fillColor=#dae8fc;strokeColor=#6c8ebf;" vertex="1" parent="1">
          <mxGeometry x="40" y="550" width="140" height="60" as="geometry" />
        </mxCell>
        <mxCell id="RqhIoaq9FpMqD3qclTNa-13" value="" style="rounded=0;whiteSpace=wrap;html=1;fillColor=#e1d5e7;strokeColor=#9673a6;" vertex="1" parent="1">
          <mxGeometry x="220" y="310" width="530" height="190" as="geometry" />
        </mxCell>
        <mxCell id="RqhIoaq9FpMqD3qclTNa-14" value="数据中台" style="shape=process;whiteSpace=wrap;html=1;backgroundOutline=1;" vertex="1" parent="1">
          <mxGeometry x="440" y="539.37" width="160" height="60" as="geometry" />
        </mxCell>
        <mxCell id="RqhIoaq9FpMqD3qclTNa-20" value="应用支持层" style="rounded=0;whiteSpace=wrap;html=1;fillColor=#dae8fc;strokeColor=#6c8ebf;" vertex="1" parent="1">
          <mxGeometry x="50" y="310" width="140" height="60" as="geometry" />
        </mxCell>
        <mxCell id="RqhIoaq9FpMqD3qclTNa-21" value="" style="rounded=1;whiteSpace=wrap;html=1;" vertex="1" parent="1">
          <mxGeometry x="230" y="320" width="120" height="60" as="geometry" />
        </mxCell>
      </root>
    </mxGraphModel>
  </diagram>
</mxfile>
